<?xml version="1.0" encoding="utf-8"?>
<svg id="docsy" version="1.1" xmlns="http://www.w3.org/2000/svg" xmlns:xlink="http://www.w3.org/1999/xlink" x="0px" y="0px"
	 viewBox="0 0 512 377" style="enable-background:new 0 0 512 377;" xml:space="preserve">
<g>
	<path class="st0" d="M247.5,51.8L205.7,2.6c0,0-34-13.9-44.9,22.4c-10.9,36.4-34,87.3-63.1,96.4c-0.6,6.1,6.1,8.5,6.1,8.5
		s7.1,3.3,20.9,3c18.2-4.6,37.3-19.1,37.5-19.3c0.3-0.2,0.8-0.2,1,0.1c0.2,0.3,0.2,0.8-0.1,1c-0.2,0.1-15.8,11.9-32.3,17.7
		c20.4-1.8,52.2-11.3,94.9-43.3C225.7,89.4,248.7,74.2,247.5,51.8z"/>
	<polyline class="st1" points="460.6,327.6 374.7,310.9 318.8,323.8 392.9,358.7 	"/>
	<polyline class="st1" points="466,310.4 380,293.7 324.2,306.6 398.3,341.5 	"/>
	<polyline class="st1" points="96.9,330.8 181.7,306 244.9,320.5 161.1,360 	"/>
	<polyline class="st1" points="248.1,325.6 218.7,376.9 343.3,376.9 308.6,323.9 	"/>
	<polyline class="st1" points="512,275.9 423.4,268 375.6,279.4 472.1,299.9 	"/>
	<polyline class="st1" points="57.1,266.4 145.8,262.9 197.2,274.3 89.8,288.2 	"/>
	<linearGradient id="SVGID_1_" gradientUnits="userSpaceOnUse" x1="88.5757" y1="185.3835" x2="88.5757" y2="185.3835">
		<stop  offset="0.2815" style="stop-color:#A07752"/>
		<stop  offset="0.9416" style="stop-color:#8C6243"/>
	</linearGradient>
	<path class="st2" d="M88.6,185.4"/>
	<polygon class="st1" points="47.6,330.3 130.6,308.1 97,291.6 1.7,300.3 26.8,335.3 	"/>
	<polygon class="st1" points="44.7,337.5 127.8,315.3 94.1,298.8 -1.2,307.5 23.9,342.5 	"/>
	<line class="st3" x1="173.4" y1="305.8" x2="164.8" y2="316.5"/>
	<path class="st0" d="M313,275.1c-0.2,0-0.2-0.4,0-0.4c2.8,0,5.6-0.1,8.4-0.2c-0.6-0.4-1.2-0.7-1.8-1.1c-0.2-0.1,0-0.4,0.2-0.3
		c0.7,0.5,1.5,0.9,2.2,1.4c1.7-0.1,3.4-0.1,5.1-0.1c4.6,0,9.3,0.3,13.7,2c0.2,0.1,0.2,0.3,0,0.4c-0.5,0.1-0.9,0.3-1.3,0.4
		c3-0.2,5.9-0.4,8.9-0.6c6.9-0.4,13.7-0.6,20.6,0.2c5,0.6,9.8,1.9,14.2,4.4c1.2,0.7,2.4,1.5,3.6,2.3c3.4-2.4,5.9-5.1,7-8.2
		c2.7-7.4-4.8-9.7-4.8-9.7s16.8-71.3-45.1-77.3c-39.9-3.9-107.4-64.5-102-113.9l-58-2.7c0,0-53.7,102.6,19.3,179.9
		c0,0,9.7,14,3.2,34.4c-7.5,7.5-21.5,18.3-1.1,20.4c20.4,2.1,30.1-19.3,30.1-19.3l-9.3-45.5c0,0,21.1,27.2,56.6,31.5
		c21.7,2.6,34.1,2.8,40.4,2.5c-0.3-0.2-0.6-0.4-1-0.6C319,275,316,275.1,313,275.1z"/>
	<path class="st0" d="M359.6,198.1c0,0,28.6-3.3,58.5-46.1c0,0-21.5,52.8-47.8,54.4"/>
	<path class="st4" d="M188.7,21.5L208,3.8c0,0,57.8,13.6,56.8,76.4C263.7,143,188.7,21.5,188.7,21.5z"/>
	<path d="M96.7,125.8c0,0,6.2,3.5,8.7-1c2.5-4.5,1.5-7.7,1.5-7.7l-11.7,1.7"/>
	<path class="st0" d="M215.2,229"/>
	<path class="st1" d="M228.4,23.9c-3.4-1.1-6.6,0.8-6.7,0.9l-31.6,27c-0.1-0.6-0.1-0.9-0.1-0.9l-30.1,5.6c0,0,0,0,0,0l-11.2,2l0,0.2
		l-24.5,4.6c0,0,0.8,16.9,16.9,14C154.3,75,154.7,63,154.4,59l5.6-1c0.6,4,3.6,14.9,16.7,12.6c12.4-2.2,13.5-12.7,13.4-17.4
		l32.1-27.5c0.3-0.2,3-1.7,5.7-0.8c1.9,0.7,3.5,2.4,4.5,5.2l1-0.4C232.4,26.6,230.6,24.6,228.4,23.9z"/>
	<path class="st4" d="M264.9,265.5c0,0-0.2,4.7,9.6,6.3c3.3-14.3-0.8-56-0.8-56"/>
	<path class="st4" d="M307.5,270.2c-75.7-3.9-65.8-68.6-73.4-89c-8.1-21.5-28.8-33.7-28.8-33.7s-20.1,10.3-10.4,41.8
		c4.9,16,31,52.3,31,52.3c30.4,36.2,62.8,32.1,98.5,34.3c1,0.1,15.9,0.5,16.8,0.3C338.4,273.8,315.9,271.4,307.5,270.2z"/>
	<path class="st0" d="M249.4,197.3l-1.7,90.1c0,0,14.2,27,29.7,24c15.6-3-3.5-23.1-3.5-23.1s-9.4-37,1.3-73.5"/>
	<path class="st4" d="M169.3,122.6c0,0,29.7-10.7,41.2-34.4C199,114,215.9,121.2,169.3,122.6z"/>
	<path class="st0" d="M314,271.6c0,0-18.1,5.9-21.7,13.9c-3.6,7.9,59.4-8.4,59.4-8.4l0.2-15"/>
	<path class="st0" d="M373.3,269.2l-20.1,5.9c0,0-18.6,7.1-22.3,16.5c-3.7,9.4,55.8-8.1,55.8-8.1l2-5.6
		C383.6,274.9,378.5,272,373.3,269.2z"/>
</g>
</svg>
